<svg width="24" height="24" viewBox="0 0 24 24" fill="none" xmlns="http://www.w3.org/2000/svg">
<path stroke="black" stroke-width="0.5" stroke-linecap="round" stroke-linejoin="round" d="M14.8686 4.13122L14.1615 3.42411L14.1615 3.42411L14.8686 4.13122ZM7.81459 7.48139L8.08931 8.44292L8.08931 8.44292L7.81459 7.48139ZM5.57564 9.83872L6.55004 10.0636L6.55004 10.0636L5.57564 9.83872ZM3 20.9998L2.02561 20.775C1.94808 21.111 2.04909 21.4632 2.29289 21.707C2.5367 21.9508 2.8889 22.0518 3.22486 21.9742L3 20.9998ZM14.1611 18.4242L13.9363 17.4498L13.9363 17.4498L14.1611 18.4242ZM16.5185 16.1853L15.5569 15.9105L15.5569 15.9105L16.5185 16.1853ZM19.8686 9.13122L20.5757 9.83833L20.5757 9.83833L19.8686 9.13122ZM19.8686 6.86848L19.1615 7.57558L19.1615 7.57559L19.8686 6.86848ZM17.1314 4.13122L17.8385 3.42411L17.8385 3.42411L17.1314 4.13122ZM20.5368 8.30887L19.5858 7.99985L19.5858 7.99985L20.5368 8.30887ZM20.5368 7.69083L19.5858 7.99985L19.5858 7.99985L20.5368 7.69083ZM15.4404 18.025L15.9601 18.8793L15.9601 18.8793L15.4404 18.025ZM16.0539 17.4423L16.8804 18.0053L16.8804 18.0053L16.0539 17.4423ZM6.55756 7.94595L7.12056 8.77241L7.12056 8.7724L6.55756 7.94595ZM5.97487 8.55945L6.82922 9.07916L6.82922 9.07916L5.97487 8.55945ZM15.691 3.46301L15.382 2.51195L15.382 2.51195L15.691 3.46301ZM16.309 3.46301L16.618 2.51195L16.618 2.51195L16.309 3.46301ZM9.14645 16.2675C9.53697 15.877 9.53697 15.2438 9.14644 14.8533C8.75591 14.4628 8.12275 14.4628 7.73223 14.8533L9.14645 16.2675ZM10 14.4998C10 14.776 9.77614 14.9998 9.5 14.9998V16.9998C10.8807 16.9998 12 15.8806 12 14.4998H10ZM9.5 14.9998C9.22386 14.9998 9 14.776 9 14.4998H7C7 15.8806 8.11929 16.9998 9.5 16.9998V14.9998ZM9 14.4998C9 14.2237 9.22386 13.9998 9.5 13.9998V11.9998C8.11929 11.9998 7 13.1191 7 14.4998H9ZM9.5 13.9998C9.77614 13.9998 10 14.2237 10 14.4998H12C12 13.1191 10.8807 11.9998 9.5 11.9998V13.9998ZM14.1615 3.42411L12.2929 5.29274L13.7071 6.70696L15.5757 4.83833L14.1615 3.42411ZM12.7253 5.03832L7.53987 6.51987L8.08931 8.44292L13.2747 6.96137L12.7253 5.03832ZM4.60125 9.61386L2.02561 20.775L3.97439 21.2247L6.55004 10.0636L4.60125 9.61386ZM3.22486 21.9742L14.386 19.3986L13.9363 17.4498L2.77514 20.0255L3.22486 21.9742ZM17.48 16.46L18.9615 11.2746L17.0385 10.7251L15.5569 15.9105L17.48 16.46ZM18.7071 11.707L20.5757 9.83833L19.1615 8.42411L17.2929 10.2927L18.7071 11.707ZM20.5757 6.16137L17.8385 3.42411L16.4243 4.83833L19.1615 7.57558L20.5757 6.16137ZM20.5757 9.83833C20.7621 9.65199 20.9449 9.47025 21.0858 9.30434C21.2342 9.12949 21.3938 8.9076 21.4879 8.61788L19.5858 7.99985C19.6057 7.93846 19.6292 7.92974 19.5611 8.00998C19.4854 8.09916 19.3712 8.21444 19.1615 8.42411L20.5757 9.83833ZM19.1615 7.57559C19.3712 7.78526 19.4854 7.90054 19.5611 7.98971C19.6292 8.06996 19.6057 8.06124 19.5858 7.99985L21.4879 7.38182C21.3938 7.0921 21.2342 6.87021 21.0858 6.69536C20.9449 6.52944 20.7621 6.34771 20.5757 6.16137L19.1615 7.57559ZM21.4879 8.61788C21.6184 8.2162 21.6184 7.7835 21.4879 7.38182L19.5858 7.99985V7.99985L21.4879 8.61788ZM14.386 19.3986C14.988 19.2597 15.5141 19.1506 15.9601 18.8793L14.9207 17.1706C14.8157 17.2345 14.6727 17.2799 13.9363 17.4498L14.386 19.3986ZM15.5569 15.9105C15.3493 16.6372 15.2966 16.7777 15.2274 16.8793L16.8804 18.0053C17.1743 17.5738 17.3103 17.054 17.48 16.46L15.5569 15.9105ZM15.9601 18.8793C16.3257 18.6569 16.6395 18.3589 16.8804 18.0053L15.2274 16.8793C15.1471 16.9972 15.0426 17.0965 14.9207 17.1706L15.9601 18.8793ZM7.53987 6.51987C6.94585 6.68959 6.426 6.82559 5.99457 7.11949L7.12056 8.7724C7.22213 8.70322 7.36263 8.65054 8.08931 8.44292L7.53987 6.51987ZM6.55004 10.0636C6.71998 9.32717 6.76535 9.18415 6.82922 9.07916L5.12053 8.03974C4.84922 8.48574 4.74017 9.0119 4.60125 9.61386L6.55004 10.0636ZM5.99457 7.11949C5.64092 7.3604 5.34291 7.67417 5.12053 8.03974L6.82922 9.07916C6.90334 8.9573 7.00268 8.85271 7.12056 8.77241L5.99457 7.11949ZM15.5757 4.83833C15.7854 4.62865 15.9007 4.51447 15.9899 4.43877C16.0701 4.37064 16.0614 4.39412 16 4.41406L15.382 2.51195C15.0922 2.60608 14.8704 2.76566 14.6955 2.91409C14.5296 3.05494 14.3479 3.23777 14.1615 3.42411L15.5757 4.83833ZM17.8385 3.42411C17.6521 3.23777 17.4704 3.05494 17.3045 2.91409C17.1296 2.76565 16.9078 2.60608 16.618 2.51195L16 4.41406C15.9386 4.39412 15.9299 4.37064 16.0101 4.43877C16.0993 4.51447 16.2146 4.62865 16.4243 4.83833L17.8385 3.42411ZM16 4.41406H16L16.618 2.51195C16.2163 2.38143 15.7837 2.38143 15.382 2.51195L16 4.41406ZM12.2929 6.70696L17.2929 11.707L18.7071 10.2927L13.7071 5.29274L12.2929 6.70696ZM7.73223 14.8533L2.29289 20.2927L3.70711 21.7069L9.14645 16.2675L7.73223 14.8533Z" fill="black"/>
</svg>